<svg width="41" height="40" viewBox="0 0 41 40" fill="white" xmlns="http://www.w3.org/2000/svg">
<path d="M20.3333 37.2728C29.8727 37.2728 37.606 29.5395 37.606 20C37.606 10.4606 29.8727 2.72729 20.3333 2.72729C10.7938 2.72729 3.06055 10.4606 3.06055 20C3.06055 29.5395 10.7938 37.2728 20.3333 37.2728Z" stroke="black" stroke-width="2" stroke-linecap="round" stroke-linejoin="round"/>
<path d="M25.4244 14.547C25.095 13.9758 24.6165 13.505 24.04 13.1848C23.4635 12.8646 22.8107 12.7072 22.1516 12.7294H18.5153C17.5508 12.7294 16.6259 13.1124 15.944 13.7941C15.262 14.4759 14.8789 15.4005 14.8789 16.3647C14.8789 17.3288 15.262 18.2535 15.944 18.9353C16.6259 19.617 17.5508 20 18.5153 20H22.1516C23.1161 20 24.041 20.383 24.7229 21.0648C25.4049 21.7465 25.788 22.6712 25.788 23.6354C25.788 24.5995 25.4049 25.5242 24.7229 26.2059C24.041 26.8877 23.1161 27.2707 22.1516 27.2707H18.5153C17.8562 27.2929 17.2034 27.1354 16.6269 26.8153C16.0504 26.4951 15.5719 26.0242 15.2425 25.453" stroke="black" stroke-width="2.75" stroke-linecap="round" stroke-linejoin="round"/>
<path d="M20.3335 8.18182V12.1212M20.3335 27.8788V31.8182" stroke="black" stroke-width="2.75" stroke-linecap="round" stroke-linejoin="round"/>
</svg>
