<svg width="41" height="40" viewBox="0 0 41 40" fill="none" xmlns="http://www.w3.org/2000/svg">
<path d="M12.333 11.6667V8.33333C12.333 7.36812 12.6124 6.42356 13.1374 5.61364C13.6625 4.80373 14.4107 4.16309 15.2918 3.76906C16.1729 3.37503 17.1493 3.24444 18.1029 3.39307C19.0566 3.5417 19.9469 3.96319 20.6663 4.60666C21.3858 3.96319 22.276 3.5417 23.2297 3.39307C24.1834 3.24444 25.1598 3.37503 26.0409 3.76906C26.922 4.16309 27.6702 4.80373 28.1952 5.61364C28.7203 6.42356 28.9997 7.36812 28.9997 8.33333V11.6667H31.4997C32.1627 11.6667 32.7986 11.9301 33.2674 12.3989C33.7363 12.8677 33.9997 13.5036 33.9997 14.1667V30.8417C33.9997 32.3865 33.386 33.8682 32.2936 34.9606C31.2012 36.053 29.7196 36.6667 28.1747 36.6667H13.9997C12.2316 36.6667 10.5359 35.9643 9.28563 34.714C8.03539 33.4638 7.33301 31.7681 7.33301 30V14.1667C7.33301 13.5036 7.5964 12.8677 8.06524 12.3989C8.53408 11.9301 9.16997 11.6667 9.83301 11.6667H12.333ZM23.3913 34.1667C22.7114 33.1913 22.3478 32.0306 22.3497 30.8417V14.1667H9.83301V30C9.83301 30.5472 9.94078 31.089 10.1502 31.5945C10.3596 32.1 10.6665 32.5594 11.0534 32.9463C11.4403 33.3332 11.8996 33.6401 12.4052 33.8495C12.9107 34.0589 13.4525 34.1667 13.9997 34.1667H23.3913ZM19.833 11.6667V8.33333C19.833 7.67028 19.5696 7.0344 19.1008 6.56556C18.6319 6.09672 17.996 5.83333 17.333 5.83333C16.67 5.83333 16.0341 6.09672 15.5652 6.56556C15.0964 7.0344 14.833 7.67028 14.833 8.33333V11.6667H19.833ZM22.333 11.6667H26.4997V8.33333C26.4997 7.81872 26.341 7.31663 26.0451 6.8956C25.7492 6.47457 25.3305 6.15511 24.8463 5.98082C24.3621 5.80654 23.836 5.78593 23.3396 5.9218C22.8433 6.05767 22.4009 6.3434 22.073 6.73999C22.2413 7.23999 22.333 7.77666 22.333 8.33333V11.6667ZM24.8497 30.8417C24.8497 31.7235 25.2 32.5692 25.8235 33.1928C26.4471 33.8163 27.2928 34.1667 28.1747 34.1667C29.0565 34.1667 29.9022 33.8163 30.5258 33.1928C31.1494 32.5692 31.4997 31.7235 31.4997 30.8417V14.1667H24.8497V30.8417Z" fill="white"/>
</svg>
